#!OML:ASF H:\Terrain\Patient Classification 1\Takeo\Monday\TakeoMonday.ASF
:FULLY-SPECIFIED
:DEGREES
1079
root 19.7889 14.1533 -2.4305 -137.217 -75.1239 145.527
lowerback 30.3593 -1.56384 4.00225
upperback 12.9274 -2.42437 1.80054
thorax -2.05171 -1.74043 0.459234
lowerneck -5.64992 18.9207 10.2387
upperneck -3.2281 25.85 -25.2723
head 4.77917 12.5361 -6.82614
rclavicle -9.54166e-015 -2.8625e-014
rhumerus -24.8864 -45.0879 -15.8763
rradius 58.5783
rwrist -43.6181
rhand -48.2561 34.0478
rfingers 7.12502
rthumb -20.9145 5.15523
lclavicle -9.54166e-015 -2.8625e-014
lhumerus 1.42669 -2.07078 74.8688
lradius 71.5093
lwrist 25.4049
lhand -28.0426 13.2639
lfingers 7.12502
lthumb -1.42706 43.2389
rfemur -60.8385 -6.12316 9.18395
rtibia 87.4295
rfoot -30.4595 -7.50674
rtoes -17.966
lfemur -53.9185 42.7829 -24.6309
ltibia 83.1706
lfoot -26.8458 15.9094
ltoes 6.70891
1080
root 19.7944 14.1515 -2.40902 -133.435 -75.3273 141.428
lowerback 30.5151 -1.62287 3.63054
upperback 12.9492 -2.5846 1.7175
thorax -2.09596 -1.82599 0.635281
lowerneck -5.54445 18.8119 9.99541
upperneck -3.38519 25.6721 -25.1843
head 4.63893 12.4719 -6.82415
rclavicle 2.70347e-014 -2.8625e-014
rhumerus -24.4673 -45.7754 -16.152
rradius 57.3817
rwrist -43.4441
rhand -47.5898 34.0439
rfingers 7.12502
rthumb -20.2742 5.08207
lclavicle 2.70347e-014 -2.8625e-014
lhumerus 1.26889 -1.92841 75.0292
lradius 71.4134
lwrist 25.3545
lhand -28.5235 13.3093
lfingers 7.12502
lthumb -1.89154 43.2806
rfemur -60.5074 -6.80675 8.22696
rtibia 87.5966
rfoot -30.5295 -7.62449
rtoes -17.4048
lfemur -53.7355 42.2066 -25.4762
ltibia 83.1158
lfoot -26.7331 16.1893
ltoes 4.98581
1081
root 19.7989 14.1439 -2.3968 -129.594 -75.1675 137.199
lowerback 30.7297 -1.42135 2.87574
upperback 13.0649 -2.54033 1.59515
thorax -2.04845 -1.82957 0.922555
lowerneck -5.74505 18.6415 10.2609
upperneck -3.23362 25.4553 -25.3652
head 4.74678 12.3347 -6.92006
rclavicle 1.74931e-014 -1.43125e-014
rhumerus -24.2564 -46.3063 -16.1119
rradius 56.2102
rwrist -43.4585
rhand -47.9612 33.4173
rfingers 7.12502
rthumb -20.6311 4.49376
lclavicle 1.74931e-014 -1.43125e-014
lhumerus 1.40587 -2.01162 75.1214
lradius 71.2063
lwrist 25.3007
lhand -28.8251 13.4364
lfingers 7.12502
lthumb -2.18282 43.405
rfemur -60.2354 -7.33759 7.05756
rtibia 87.8105
rfoot -30.4305 -7.89975
rtoes -17.2118
lfemur -53.3881 41.8992 -26.5482
ltibia 82.9726
lfoot -26.1746 16.8381
ltoes 1.32002
1082
root 19.8065 14.1271 -2.38175 -129.557 -75.6848 137.277
lowerback 30.6875 -1.27902 3.07164
upperback 13.0812 -2.29651 1.82545
thorax -2.0029 -1.70955 0.986246
lowerneck -6.03081 18.5854 10.239
upperneck -3.0103 25.4116 -25.4082
head 4.85815 12.2764 -6.90352
rclavicle -1.11319e-014 8.50798e-014
rhumerus -23.9687 -46.5736 -16.3586
rradius 55.487
rwrist -43.4835
rhand -48.4243 33.1302
rfingers 7.12502
rthumb -21.0761 4.25558
lclavicle -1.11319e-014 8.50798e-014
lhumerus 1.44083 -1.80467 75.2876
lradius 71.0601
lwrist 25.4091
lhand -28.5439 13.0882
lfingers 7.12502
lthumb -1.91119 43.0594
rfemur -60.3467 -7.11052 7.34225
rtibia 87.9491
rfoot -30.4279 -8.62248
rtoes -17.3425
lfemur -53.9048 42.025 -26.5247
ltibia 83.0583
lfoot -25.5952 17.1456
ltoes -1.97898
1083
root 19.812 14.1144 -2.35881 -129.092 -76.6013 137.06
lowerback 30.5189 -1.42291 3.75666
upperback 12.971 -2.2584 2.02955
thorax -2.05621 -1.66173 0.804901
lowerneck -5.9913 18.5707 10.1476
upperneck -2.9189 25.3998 -25.223
head 4.83456 12.2744 -6.84473
rclavicle 1.11319e-014 1.59028e-014
rhumerus -23.5494 -46.939 -16.8164
rradius 54.6884
rwrist -43.4102
rhand -48.5964 33.5753
rfingers 7.12502
rthumb -21.2413 4.7192
lclavicle 1.11319e-014 1.59028e-014
lhumerus 1.12673 -1.54625 75.3772
lradius 71.1411
lwrist 25.6887
lhand -27.9767 12.8631
lfingers 7.12502
lthumb -1.3634 42.8384
rfemur -60.3985 -7.1077 7.86051
rtibia 88.0437
rfoot -30.6353 -9.30195
rtoes -17.8356
lfemur -54.6239 41.7115 -26.3286
ltibia 83.196
lfoot -25.227 17.3094
ltoes -4.23785
1084
root 19.8201 14.1063 -2.33718 -127.247 -77.4007 135.305
lowerback 30.4141 -1.62951 4.30864
upperback 12.898 -2.34473 2.08034
thorax -2.10051 -1.67559 0.570804
lowerneck -5.81321 18.5754 10.1563
upperneck -2.89715 25.4049 -25.0478
head 4.78477 12.2955 -6.81231
rclavicle 1.11319e-014 -4.6118e-014
rhumerus -22.9608 -47.9129 -17.4656
rradius 53.7228
rwrist -42.813
rhand -48.8932 33.4122
rfingers 7.12502
rthumb -21.5264 4.58846
lclavicle 1.11319e-014 -4.6118e-014
lhumerus 0.836522 -1.44295 75.3415
lradius 71.2269
lwrist 25.7079
lhand -27.7353 13.2812
lfingers 7.12502
lthumb -1.13028 43.258
rfemur -60.2989 -7.34081 8.0073
rtibia 88.1272
rfoot -30.6191 -9.92149
rtoes -18.6287
lfemur -55.109 41.1305 -26.3348
ltibia 83.3314
lfoot -24.837 17.6034
ltoes -6.58943
1085
root 19.8287 14.0978 -2.32103 -125.695 -78.0022 133.706
lowerback 30.4196 -1.7004 4.5835
upperback 12.9227 -2.35347 2.12872
thorax -2.07619 -1.66867 0.469527
lowerneck -5.93766 18.5545 10.1349
upperneck -2.84696 25.3733 -24.9783
head 4.80097 12.2697 -6.78301
rclavicle -2.38542e-014 -3.02153e-014
rhumerus -22.7734 -48.7873 -18.1387
rradius 53.3394
rwrist -42.4199
rhand -48.8578 32.6598
rfingers 7.12502
rthumb -21.4924 3.83214
lclavicle -2.38542e-014 -3.02153e-014
lhumerus 0.711481 -1.26406 75.2331
lradius 71.2735
lwrist 25.5969
lhand -27.7335 13.7424
lfingers 7.12502
lthumb -1.12849 43.7192
rfemur -60.0783 -7.42729 8.01505
rtibia 88.1727
rfoot -30.5804 -10.1827
rtoes -18.5701
lfemur -55.3863 40.8424 -26.2917
ltibia 83.4526
lfoot -24.5739 17.7352
ltoes -8.15454
1086
root 19.8377 14.0954 -2.29771 -123.895 -78.5035 131.782
lowerback 30.5033 -1.73053 4.61556
upperback 13.0094 -2.38373 2.28042
thorax -2.00717 -1.69022 0.628707
lowerneck -6.28002 18.4753 10.0396
upperneck -2.97 25.2398 -25.1703
head 4.8179 12.1803 -6.82212
rclavicle -4.77083e-015 -5.40694e-014
rhumerus -22.4035 -49.042 -18.8282
rradius 53.0768
rwrist -42.6644
rhand -49.1425 32.449
rfingers 7.12502
rthumb -21.7658 3.6528
lclavicle -4.77083e-015 -5.40694e-014
lhumerus 0.677009 -0.707025 75.368
lradius 71.3161
lwrist 25.4221
lhand -27.8165 14.1408
lfingers 7.12502
lthumb -1.20865 44.1171
rfemur -59.7293 -7.5017 7.87287
rtibia 88.1658
rfoot -30.7508 -10.2699
rtoes -17.6526
lfemur -55.4966 40.5794 -26.3139
ltibia 83.4827
lfoot -24.5321 17.7198
ltoes -8.86959
1087
root 19.8488 14.104 -2.26509 -120.759 -78.7319 128.413
lowerback 30.6201 -1.75071 4.44318
upperback 13.1203 -2.4589 2.39682
thorax -1.92387 -1.74074 0.880118
lowerneck -6.66167 18.4352 9.52283
upperneck -2.9903 25.17 -24.9594
head 4.76208 12.1266 -6.68275
rclavicle 1.59028e-015 0
rhumerus -21.6541 -49.2964 -19.5043
rradius 52.4992
rwrist -42.7496
rhand -49.6044 31.9661
rfingers 7.12502
rthumb -22.2094 3.22209
lclavicle 1.59028e-015 0
lhumerus 0.695577 -0.199276 75.6375
lradius 71.2807
lwrist 25.3315
lhand -28.0232 14.3814
lfingers 7.12502
lthumb -1.40832 44.3565
rfemur -59.3168 -7.65352 7.32694
rtibia 88.175
rfoot -30.9584 -10.7615
rtoes -17.5501
lfemur -55.3157 40.1038 -26.6381
ltibia 83.3713
lfoot -25.1164 17.2044
ltoes -6.8361
1088
root 19.8547 14.1095 -2.2393 -115.98 -78.5759 123.28
lowerback 30.7587 -1.73671 4.07341
upperback 13.2134 -2.54085 2.27217
thorax -1.87944 -1.78864 0.981476
lowerneck -6.93368 18.3863 9.10693
upperneck -2.84459 25.1067 -24.556
head 4.72161 12.08 -6.5057
rclavicle 2.06736e-014 -3.18055e-015
rhumerus -21.2918 -49.592 -19.8667
rradius 51.804
rwrist -42.7475
rhand -49.7724 31.4025
rfingers 7.12502
rthumb -22.3707 2.67775
lclavicle 2.06736e-014 -3.18055e-015
lhumerus 0.640154 -0.342268 75.4481
lradius 71.4384
lwrist 26.0691
lhand -28.562 14.7209
lfingers 7.12502
lthumb -1.92865 44.6919
rfemur -58.7616 -7.9587 6.20748
rtibia 88.1952
rfoot -31.2679 -10.8752
rtoes -17.1409
lfemur -54.8316 39.4922 -27.3165
ltibia 83.1766
lfoot -25.9297 16.2767
ltoes -2.76602
1089
root 19.8542 14.1091 -2.22365 -110.943 -78.5294 117.998
lowerback 30.6919 -1.81541 3.78989
upperback 13.3075 -2.72235 2.09769
thorax -1.74764 -1.87663 1.00034
lowerneck -6.87488 18.3622 9.1539
upperneck -3.08159 25.0373 -24.7066
head 4.6602 12.062 -6.57832
rclavicle 3.02153e-014 -4.77083e-015
rhumerus -20.7699 -49.984 -20.598
rradius 50.9794
rwrist -42.5639
rhand -50.2034 32.0288
rfingers 7.12502
rthumb -22.7843 3.35439
lclavicle 3.02153e-014 -4.77083e-015
lhumerus 0.476108 -0.484244 74.9521
lradius 71.7662
lwrist 27.1047
lhand -29.4312 14.8717
lfingers 7.12502
lthumb -2.76815 44.8334
rfemur -58.2365 -8.32027 5.29741
rtibia 88.1994
rfoot -31.3837 -11.1011
rtoes -17.3702
lfemur -54.4716 38.7899 -27.8014
ltibia 83.0266
lfoot -26.2767 15.3401
ltoes 0.540997
1090
root 19.8631 14.1112 -2.19686 -108.68 -78.9378 115.593
lowerback 30.7486 -1.86901 4.1088
upperback 13.3468 -2.7004 2.08544
thorax -1.73457 -1.8507 0.799297
lowerneck -7.05388 18.2741 9.17966
upperneck -3.09718 24.8956 -24.6704
head 4.66017 11.9804 -6.58094
rclavicle 2.54444e-014 -1.43125e-014
rhumerus -20.263 -50.5014 -21.4886
rradius 50.2332
rwrist -42.2863
rhand -50.7117 33.0066
rfingers 7.12502
rthumb -23.272 4.39295
lclavicle 2.54444e-014 -1.43125e-014
lhumerus 0.355123 -0.465014 74.6981
lradius 71.8568
lwrist 27.4345
lhand -29.8153 14.6548
lfingers 7.12502
lthumb -3.13906 44.6114
rfemur -57.9165 -8.23831 5.26194
rtibia 88.1705
rfoot -30.9625 -12.1326
rtoes -19.2476
lfemur -54.403 38.4609 -27.6376
ltibia 82.9833
lfoot -26.0912 15.0437
ltoes -0.258431
1091
root 19.8791 14.1114 -2.16886 -107.834 -79.6465 114.697
lowerback 30.9625 -1.80773 4.69524
upperback 13.2412 -2.42424 2.31549
thorax -1.94326 -1.69907 0.645874
lowerneck -7.40977 18.1024 9.1146
upperneck -2.54319 24.7273 -24.4053
head 4.80859 11.843 -6.48023
rclavicle -2.22639e-014 -7.95139e-015
rhumerus -19.9408 -50.6087 -21.8491
rradius 49.4922
rwrist -42.3433
rhand -51.06 33.0742
rfingers 7.12502
rthumb -23.6061 4.5032
lclavicle -2.22639e-014 -7.95139e-015
lhumerus 0.166369 -0.458835 74.8233
lradius 71.8242
lwrist 27.1966
lhand -29.657 14.8811
lfingers 7.12502
lthumb -2.9862 44.84
rfemur -57.7264 -7.89345 5.68344
rtibia 88.1963
rfoot -30.8793 -12.645
rtoes -18.5907
lfemur -54.682 38.4325 -27.2243
ltibia 83.0676
lfoot -25.803 15.1961
ltoes -3.78818
1092
root 19.8943 14.1147 -2.14482 -103.947 -79.7939 110.757
lowerback 31.1358 -1.74551 4.63568
upperback 13.0899 -2.30604 2.4574
thorax -2.18412 -1.64117 0.811694
lowerneck -7.54304 17.9797 9.13534
upperneck -2.11993 24.6262 -24.3574
head 4.93781 11.7578 -6.46255
rclavicle -2.54444e-014 -1.11319e-014
rhumerus -19.4129 -50.8167 -22.2858
rradius 48.6689
rwrist -42.0835
rhand -51.2361 33.2761
rfingers 7.12502
rthumb -23.7751 4.72706
lclavicle -2.54444e-014 -1.11319e-014
lhumerus -0.0979614 -0.384415 74.9627
lradius 71.8946
lwrist 26.9963
lhand -29.7819 15.2234
lfingers 7.12502
lthumb -3.10679 45.1805
rfemur -57.4966 -7.95273 5.26861
rtibia 88.2814
rfoot -31.2007 -12.754
rtoes -16.5614
lfemur -54.9357 37.9432 -27.5741
ltibia 83.1297
lfoot -26.1538 14.7396
ltoes -2.3443
